<svg xmlns="http://www.w3.org/2000/svg" xmlns:xlink="http://www.w3.org/1999/xlink" version="1.1" x="0px" y="0px" viewBox="0 0 100 125" enable-background="new 0 0 100 100" xml:space="preserve"><g><path fill="none" d="M41.264,50.734c0,4.307,2.035,6.623,7.023,7.993l0.748,0.213V42.409l-0.365,0.035   C43.963,42.893,41.264,45.914,41.264,50.734z"/><path fill="none" d="M42.404,25.347h0.764h13.664h0.764c1.549,0,2.81-1.26,2.81-2.809c0-1.548-1.261-2.808-2.81-2.808H42.404   c-1.549,0-2.81,1.26-2.81,2.808C39.594,24.087,40.855,25.347,42.404,25.347z"/><path fill="none" d="M42.404,18.061h15.192h0.099l3.753-3.756c0.852-0.852,1.321-1.984,1.321-3.188   c0-1.204-0.469-2.335-1.321-3.185c-1.703-1.707-4.672-1.707-6.372-0.003l-4.492,4.486c-0.326,0.326-0.854,0.326-1.179,0   l-4.481-4.484c-1.702-1.703-4.675-1.702-6.372,0c-0.853,0.853-1.323,1.986-1.324,3.189s0.467,2.334,1.319,3.184l3.753,3.757H42.404   z"/><path fill="none" d="M52.227,61.619l-1.717-0.528v18.517l0.363-0.029c5.174-0.423,8.65-4.113,8.65-9.184   C59.523,64.978,56.733,63.022,52.227,61.619z"/><path fill="none" d="M56.731,27.015H43.269C30.74,30.11,21.998,41.262,21.998,54.168v31.95c0,3.978,3.223,7.214,7.184,7.214h41.637   c3.961,0,7.184-3.236,7.184-7.214v-31.95C78.002,41.263,69.26,30.111,56.731,27.015z M50.829,80.821l-0.319,0.015v4.688   l-0.029,0.392h-1.446v-5.133l-0.318-0.015c-8.634-0.406-9.921-6.883-9.921-10.708V69.16h1.681v1.01c0,5.68,2.756,8.823,8.19,9.346   l0.367,0.035V60.586l-1.728-0.59c-5.341-1.847-7.725-4.636-7.725-9.04c0-5.656,3.502-9.396,9.141-9.758l0.313-0.02v-4.079h1.446   l0.029,0.011v4.022l0.314,0.018c6.187,0.349,9.377,3.646,9.486,9.808h-1.688c-0.106-5.296-2.784-8.257-7.757-8.569l-0.355-0.022   v17.064l2.582,0.861c5.011,1.67,8.114,3.913,8.114,9.934C61.206,76.466,57.23,80.525,50.829,80.821z"/><path d="M60.027,26.287c1.229-0.799,2.047-2.178,2.047-3.75c0-1.756-1.026-3.263-2.501-3.996l3.055-3.057   c1.167-1.167,1.81-2.718,1.81-4.367c0-1.65-0.643-3.2-1.81-4.365c-2.332-2.335-6.401-2.336-8.731-0.002l-3.901,3.897l-3.893-3.894   c-2.331-2.333-6.403-2.329-8.731,0c-1.167,1.168-1.81,2.719-1.811,4.367c-0.002,1.65,0.641,3.2,1.808,4.366l3.056,3.059   c-1.474,0.733-2.499,2.24-2.499,3.995c0,1.572,0.818,2.951,2.046,3.75C28.27,30.468,20.33,41.513,20.33,54.168v31.95   C20.33,91.016,24.3,95,29.181,95h41.637c4.881,0,8.852-3.984,8.852-8.882v-31.95C79.67,41.514,71.73,30.468,60.027,26.287z    M38.548,14.304c-0.852-0.85-1.32-1.981-1.319-3.184s0.471-2.336,1.324-3.189c1.696-1.702,4.669-1.703,6.372,0l4.481,4.484   c0.326,0.326,0.854,0.326,1.179,0l4.492-4.486c1.699-1.703,4.669-1.703,6.372,0.003c0.852,0.849,1.321,1.981,1.321,3.185   c0,1.204-0.469,2.336-1.321,3.188l-3.753,3.756h-0.099H42.404h-0.103L38.548,14.304z M39.594,22.538   c0-1.548,1.261-2.808,2.81-2.808h15.192c1.549,0,2.81,1.26,2.81,2.808c0,1.549-1.261,2.809-2.81,2.809h-0.764H43.168h-0.764   C40.855,25.347,39.594,24.087,39.594,22.538z M78.002,86.118c0,3.978-3.223,7.214-7.184,7.214H29.181   c-3.961,0-7.184-3.236-7.184-7.214v-31.95c0-12.906,8.742-24.058,21.271-27.154h13.462c12.529,3.096,21.271,14.248,21.271,27.154   V86.118z"/><path d="M53.092,60.292l-2.582-0.861V42.366l0.355,0.022c4.973,0.313,7.651,3.274,7.757,8.569h1.688   c-0.109-6.162-3.299-9.458-9.486-9.808l-0.314-0.018V37.11l-0.029-0.011h-1.446v4.079l-0.313,0.02   c-5.638,0.362-9.141,4.102-9.141,9.758c0,4.404,2.383,7.193,7.725,9.04l1.728,0.59v18.965l-0.367-0.035   c-5.434-0.523-8.19-3.666-8.19-9.346v-1.01h-1.681v0.901c0,3.826,1.286,10.302,9.921,10.708l0.318,0.015v5.133h1.446l0.029-0.392   v-4.688l0.319-0.015c6.4-0.296,10.377-4.355,10.377-10.595C61.206,64.205,58.103,61.962,53.092,60.292z M49.034,58.94l-0.748-0.213   c-4.988-1.369-7.023-3.685-7.023-7.993c0-4.819,2.699-7.84,7.406-8.29l0.365-0.035V58.94z M50.873,79.579l-0.363,0.029V61.092   l1.717,0.528c4.506,1.403,7.296,3.359,7.296,8.776C59.523,75.466,56.047,79.156,50.873,79.579z"/></g><text x="0" y="115" fill="#000000" font-size="5px" font-weight="bold" font-family="'Helvetica Neue', Helvetica, Arial-Unicode, Arial, Sans-serif">Created by Alena</text><text x="0" y="120" fill="#000000" font-size="5px" font-weight="bold" font-family="'Helvetica Neue', Helvetica, Arial-Unicode, Arial, Sans-serif">from the Noun Project</text></svg>