<svg xmlns="http://www.w3.org/2000/svg" data-name="Layer 1" viewBox="0 0 100 125" x="0px" y="0px"><title>Artboard 21</title><path d="M46.26,41l-10.8,10A22,22,0,0,1,36,64.9a2.5,2.5,0,1,1-4.8-1.39,17,17,0,0,0-1-12,2.5,2.5,0,0,1,.56-2.91l12.09-11.2a3.48,3.48,0,0,0,.11-5,3.5,3.5,0,0,0-4.73-.21L19.19,48.33A2.5,2.5,0,1,1,16,44.52L35,28.36a8.52,8.52,0,0,1,11.52.5A8.48,8.48,0,0,1,46.26,41ZM38.48,86.76a2.5,2.5,0,1,0,2.5,2.5A2.5,2.5,0,0,0,38.48,86.76ZM29.29,26a2.51,2.51,0,0,0,.55-.06A16.07,16.07,0,0,0,41.9,13.92,2.5,2.5,0,1,0,37,12.82a11,11,0,0,1-8.29,8.29A2.5,2.5,0,0,0,29.29,26ZM86,32.8A16.07,16.07,0,0,0,75.44,44.45a2.5,2.5,0,1,0,4.88,1.1,11,11,0,0,1,7.28-8A2.5,2.5,0,0,0,86,32.8Zm1.57-12a11,11,0,0,1-7.28-8,2.5,2.5,0,1,0-4.88,1.1A16.07,16.07,0,0,0,86,25.58a2.5,2.5,0,0,0,1.57-4.75Zm5.19-18.4H24.56a6.22,6.22,0,0,0-6.21,6.21V20.45L11.09,27.7A19.78,19.78,0,0,0,5.26,41.78v36H3.5A2.5,2.5,0,0,0,1,80.29V95.07a2.5,2.5,0,0,0,5,0V82.79H47.33V95.07a2.5,2.5,0,0,0,5,0V80.29a2.5,2.5,0,0,0-2.5-2.5H46.18V75.36a20.11,20.11,0,0,0,8.11-13.73,2.5,2.5,0,1,0-5-.64,15.14,15.14,0,0,1-7,10.92A2.5,2.5,0,0,0,41.18,74v3.75H10.26v-36a14.82,14.82,0,0,1,4.37-10.54l3.72-3.72v4.92a2.5,2.5,0,0,0,5,0V8.64a1.21,1.21,0,0,1,1.21-1.21H92.79A1.21,1.21,0,0,1,94,8.64v41.1a1.21,1.21,0,0,1-1.21,1.21H44a2.5,2.5,0,0,0,0,5H92.79A6.22,6.22,0,0,0,99,49.74V8.64A6.22,6.22,0,0,0,92.79,2.43ZM89.83,60a2.5,2.5,0,0,0-3.21,1.49L85,65.86a1.21,1.21,0,0,1-1.55.72L62.31,58.84a2.5,2.5,0,1,0-1.72,4.7l21.16,7.73a6.21,6.21,0,0,0,8-3.7l1.59-4.36A2.5,2.5,0,0,0,89.83,60ZM76.89,75.93,73.7,79.31a1.21,1.21,0,0,1-.85.38,1.25,1.25,0,0,1-.87-.33L59.64,67.73a2.5,2.5,0,1,0-3.43,3.64L68.56,83a6.17,6.17,0,0,0,4.26,1.69H73a6.17,6.17,0,0,0,4.34-1.95l3.19-3.38a2.5,2.5,0,0,0-3.64-3.43ZM56.51,35.6a2.5,2.5,0,0,0-1.78,4.67A11.87,11.87,0,1,0,49.51,22a2.5,2.5,0,0,0,4,3,6.87,6.87,0,1,1,3,10.58Zm16.84-6.42a2.5,2.5,0,0,0,2.5,2.5h3.56a2.5,2.5,0,0,0,0-5H75.85A2.5,2.5,0,0,0,73.35,29.18Z"/><text x="0" y="115" fill="#000000" font-size="5px" font-weight="bold" font-family="'Helvetica Neue', Helvetica, Arial-Unicode, Arial, Sans-serif">Created by Gregor Cresnar</text><text x="0" y="120" fill="#000000" font-size="5px" font-weight="bold" font-family="'Helvetica Neue', Helvetica, Arial-Unicode, Arial, Sans-serif">from the Noun Project</text></svg>